<svg xmlns="http://www.w3.org/2000/svg" viewBox="0 0 600 400">
  <defs>
    <linearGradient id="bg4" x1="0%" y1="0%" x2="100%" y2="100%">
      <stop offset="0%" stop-color="#0f766e"/>
      <stop offset="100%" stop-color="#22c55e"/>
    </linearGradient>
  </defs>
  <rect width="600" height="400" rx="32" fill="url(#bg4)"/>
  <rect x="100" y="95" width="400" height="215" rx="28" fill="#fff" opacity="0.97"/>
  <rect x="150" y="125" width="130" height="150" rx="24" fill="#ecfeff"/>
  <circle cx="215" cy="180" r="44" fill="#0f766e" opacity="0.22"/>
  <circle cx="215" cy="180" r="28" fill="#14b8a6"/>
  <path d="M195 180c7-13 23-13 30 0" stroke="#fff" stroke-width="6" fill="none" stroke-linecap="round"/>
  <circle cx="205" cy="172" r="4" fill="#fff"/>
  <circle cx="225" cy="172" r="4" fill="#fff"/>
  <rect x="320" y="145" width="120" height="12" rx="6" fill="#a7f3d0"/>
  <rect x="320" y="172" width="95" height="12" rx="6" fill="#d1fae5"/>
  <rect x="320" y="199" width="110" height="12" rx="6" fill="#d1fae5"/>
  <rect x="320" y="226" width="80" height="12" rx="6" fill="#d1fae5"/>
  <path d="M430 145h38" stroke="#22c55e" stroke-width="10" stroke-linecap="round"/>
  <path d="M430 172h24" stroke="#22c55e" stroke-width="10" stroke-linecap="round"/>
</svg>